  0
SECTION
  2
BLOCKS
  0
ENDSEC
  0
SECTION
  2
ENTITIES
  0
LINE
  8
0
 10
19.3136
 20
-59.441
 11
31.25
 21
-54.1266
  0
LINE
  8
0
 10
31.25
 20
-54.1266
 11
41.8206
 21
-46.4465
  0
LINE
  8
0
 10
41.8206
 20
-46.4465
 11
50.5636
 21
-36.7366
  0
LINE
  8
0
 10
50.5636
 20
-36.7366
 11
57.0966
 21
-25.421
  0
LINE
  8
0
 10
57.0966
 20
-25.421
 11
61.1342
 21
-12.9945
  0
LINE
  8
0
 10
61.1342
 20
-12.9945
 11
62.5
 21
0
  0
LINE
  8
0
 10
62.5
 20
0
 11
61.1342
 21
12.9945
  0
LINE
  8
0
 10
61.1342
 20
12.9945
 11
57.0966
 21
25.421
  0
LINE
  8
0
 10
57.0966
 20
25.421
 11
50.5636
 21
36.7366
  0
LINE
  8
0
 10
50.5636
 20
36.7366
 11
41.8206
 21
46.4465
  0
LINE
  8
0
 10
41.8206
 20
46.4465
 11
31.25
 21
54.1266
  0
LINE
  8
0
 10
31.25
 20
54.1266
 11
19.3136
 21
59.441
  0
LINE
  8
0
 10
19.3136
 20
59.441
 11
6.53302
 21
62.1576
  0
LINE
  8
0
 10
6.53302
 20
62.1576
 11
-6.53302
 21
62.1576
  0
LINE
  8
0
 10
-6.53302
 20
62.1576
 11
-19.3136
 21
59.441
  0
LINE
  8
0
 10
-19.3136
 20
59.441
 11
-31.25
 21
54.1266
  0
LINE
  8
0
 10
-31.25
 20
54.1266
 11
-41.8206
 21
46.4465
  0
LINE
  8
0
 10
-41.8206
 20
46.4465
 11
-50.5636
 21
36.7366
  0
LINE
  8
0
 10
-50.5636
 20
36.7366
 11
-57.0966
 21
25.421
  0
LINE
  8
0
 10
-57.0966
 20
25.421
 11
-61.1342
 21
12.9945
  0
LINE
  8
0
 10
-61.1342
 20
12.9945
 11
-62.5
 21
0
  0
LINE
  8
0
 10
-62.5
 20
0
 11
-61.1342
 21
-12.9945
  0
LINE
  8
0
 10
-61.1342
 20
-12.9945
 11
-57.0966
 21
-25.421
  0
LINE
  8
0
 10
-57.0966
 20
-25.421
 11
-50.5636
 21
-36.7366
  0
LINE
  8
0
 10
-50.5636
 20
-36.7366
 11
-41.8206
 21
-46.4465
  0
LINE
  8
0
 10
-41.8206
 20
-46.4465
 11
-31.25
 21
-54.1266
  0
LINE
  8
0
 10
-31.25
 20
-54.1266
 11
-19.3136
 21
-59.441
  0
LINE
  8
0
 10
-19.3136
 20
-59.441
 11
-6.53302
 21
-62.1576
  0
LINE
  8
0
 10
-6.53302
 20
-62.1576
 11
6.53302
 21
-62.1576
  0
LINE
  8
0
 10
6.53302
 20
-62.1576
 11
19.3136
 21
-59.441
  0
LINE
  8
0
 10
-20.927
 20
-2.85316
 11
-22.427
 21
-1.76335
  0
LINE
  8
0
 10
-22.427
 20
-1.76335
 11
-23
 21
0
  0
LINE
  8
0
 10
-23
 20
0
 11
-22.427
 21
1.76335
  0
LINE
  8
0
 10
-22.427
 20
1.76335
 11
-20.927
 21
2.85316
  0
LINE
  8
0
 10
-20.927
 20
2.85316
 11
-19.0729
 21
2.85316
  0
LINE
  8
0
 10
-19.0729
 20
2.85316
 11
-17.5729
 21
1.76335
  0
LINE
  8
0
 10
-17.5729
 20
1.76335
 11
-17
 21
0
  0
LINE
  8
0
 10
-17
 20
0
 11
-17.5729
 21
-1.76335
  0
LINE
  8
0
 10
-17.5729
 20
-1.76335
 11
-19.0729
 21
-2.85316
  0
LINE
  8
0
 10
-19.0729
 20
-2.85316
 11
-20.927
 21
-2.85316
  0
LINE
  8
0
 10
19.0729
 20
-2.85316
 11
17.5729
 21
-1.76335
  0
LINE
  8
0
 10
17.5729
 20
-1.76335
 11
17
 21
0
  0
LINE
  8
0
 10
17
 20
0
 11
17.5729
 21
1.76335
  0
LINE
  8
0
 10
17.5729
 20
1.76335
 11
19.0729
 21
2.85316
  0
LINE
  8
0
 10
19.0729
 20
2.85316
 11
20.927
 21
2.85316
  0
LINE
  8
0
 10
20.927
 20
2.85316
 11
22.427
 21
1.76335
  0
LINE
  8
0
 10
22.427
 20
1.76335
 11
23
 21
0
  0
LINE
  8
0
 10
23
 20
0
 11
22.427
 21
-1.76335
  0
LINE
  8
0
 10
22.427
 20
-1.76335
 11
20.927
 21
-2.85316
  0
LINE
  8
0
 10
20.927
 20
-2.85316
 11
19.0729
 21
-2.85316
  0
ENDSEC
  0
SECTION
  2
OBJECTS
  0
DICTIONARY
  0
ENDSEC
  0
EOF
