  0
SECTION
  2
BLOCKS
  0
ENDSEC
  0
SECTION
  2
ENTITIES
  0
LINE
  8
0
 10
18.3865
 20
-56.5879
 11
29.75
 21
-51.5285
  0
LINE
  8
0
 10
29.75
 20
-51.5285
 11
39.8133
 21
-44.2171
  0
LINE
  8
0
 10
39.8133
 20
-44.2171
 11
48.1365
 21
-34.9732
  0
LINE
  8
0
 10
48.1365
 20
-34.9732
 11
54.3559
 21
-24.2008
  0
LINE
  8
0
 10
54.3559
 20
-24.2008
 11
58.1998
 21
-12.3707
  0
LINE
  8
0
 10
58.1998
 20
-12.3707
 11
59.5
 21
0
  0
LINE
  8
0
 10
59.5
 20
0
 11
58.1998
 21
12.3707
  0
LINE
  8
0
 10
58.1998
 20
12.3707
 11
54.3559
 21
24.2008
  0
LINE
  8
0
 10
54.3559
 20
24.2008
 11
48.1365
 21
34.9732
  0
LINE
  8
0
 10
48.1365
 20
34.9732
 11
39.8133
 21
44.2171
  0
LINE
  8
0
 10
39.8133
 20
44.2171
 11
29.75
 21
51.5285
  0
LINE
  8
0
 10
29.75
 20
51.5285
 11
18.3865
 21
56.5879
  0
LINE
  8
0
 10
18.3865
 20
56.5879
 11
6.21944
 21
59.174
  0
LINE
  8
0
 10
6.21944
 20
59.174
 11
-6.21944
 21
59.174
  0
LINE
  8
0
 10
-6.21944
 20
59.174
 11
-18.3865
 21
56.5879
  0
LINE
  8
0
 10
-18.3865
 20
56.5879
 11
-29.75
 21
51.5285
  0
LINE
  8
0
 10
-29.75
 20
51.5285
 11
-39.8133
 21
44.2171
  0
LINE
  8
0
 10
-39.8133
 20
44.2171
 11
-48.1365
 21
34.9732
  0
LINE
  8
0
 10
-48.1365
 20
34.9732
 11
-54.3559
 21
24.2008
  0
LINE
  8
0
 10
-54.3559
 20
24.2008
 11
-58.1998
 21
12.3707
  0
LINE
  8
0
 10
-58.1998
 20
12.3707
 11
-59.5
 21
0
  0
LINE
  8
0
 10
-59.5
 20
0
 11
-58.1998
 21
-12.3707
  0
LINE
  8
0
 10
-58.1998
 20
-12.3707
 11
-54.3559
 21
-24.2008
  0
LINE
  8
0
 10
-54.3559
 20
-24.2008
 11
-48.1365
 21
-34.9732
  0
LINE
  8
0
 10
-48.1365
 20
-34.9732
 11
-39.8133
 21
-44.2171
  0
LINE
  8
0
 10
-39.8133
 20
-44.2171
 11
-29.75
 21
-51.5285
  0
LINE
  8
0
 10
-29.75
 20
-51.5285
 11
-18.3865
 21
-56.5879
  0
LINE
  8
0
 10
-18.3865
 20
-56.5879
 11
-6.21944
 21
-59.174
  0
LINE
  8
0
 10
-6.21944
 20
-59.174
 11
6.21944
 21
-59.174
  0
LINE
  8
0
 10
6.21944
 20
-59.174
 11
18.3865
 21
-56.5879
  0
LINE
  8
0
 10
-20.927
 20
-2.85316
 11
-22.427
 21
-1.76335
  0
LINE
  8
0
 10
-22.427
 20
-1.76335
 11
-23
 21
0
  0
LINE
  8
0
 10
-23
 20
0
 11
-22.427
 21
1.76335
  0
LINE
  8
0
 10
-22.427
 20
1.76335
 11
-20.927
 21
2.85316
  0
LINE
  8
0
 10
-20.927
 20
2.85316
 11
-19.0729
 21
2.85316
  0
LINE
  8
0
 10
-19.0729
 20
2.85316
 11
-17.5729
 21
1.76335
  0
LINE
  8
0
 10
-17.5729
 20
1.76335
 11
-17
 21
0
  0
LINE
  8
0
 10
-17
 20
0
 11
-17.5729
 21
-1.76335
  0
LINE
  8
0
 10
-17.5729
 20
-1.76335
 11
-19.0729
 21
-2.85316
  0
LINE
  8
0
 10
-19.0729
 20
-2.85316
 11
-20.927
 21
-2.85316
  0
LINE
  8
0
 10
19.0729
 20
-2.85316
 11
17.5729
 21
-1.76335
  0
LINE
  8
0
 10
17.5729
 20
-1.76335
 11
17
 21
0
  0
LINE
  8
0
 10
17
 20
0
 11
17.5729
 21
1.76335
  0
LINE
  8
0
 10
17.5729
 20
1.76335
 11
19.0729
 21
2.85316
  0
LINE
  8
0
 10
19.0729
 20
2.85316
 11
20.927
 21
2.85316
  0
LINE
  8
0
 10
20.927
 20
2.85316
 11
22.427
 21
1.76335
  0
LINE
  8
0
 10
22.427
 20
1.76335
 11
23
 21
0
  0
LINE
  8
0
 10
23
 20
0
 11
22.427
 21
-1.76335
  0
LINE
  8
0
 10
22.427
 20
-1.76335
 11
20.927
 21
-2.85316
  0
LINE
  8
0
 10
20.927
 20
-2.85316
 11
19.0729
 21
-2.85316
  0
ENDSEC
  0
SECTION
  2
OBJECTS
  0
DICTIONARY
  0
ENDSEC
  0
EOF
